<svg width="20" height="20" viewBox="0 0 20 20" fill="none" xmlns="http://www.w3.org/2000/svg">
<path d="M15.4163 10.5416V13.625C15.4163 16.225 12.9913 18.3333 9.99967 18.3333C7.00801 18.3333 4.58301 16.225 4.58301 13.625V10.5416C4.58301 13.1416 7.00801 15 9.99967 15C12.9913 15 15.4163 13.1416 15.4163 10.5416Z" stroke="#9C9CAB" stroke-width="1.5" stroke-linecap="round" stroke-linejoin="round"/>
<path d="M15.4163 6.37496C15.4163 7.13329 15.208 7.83329 14.8413 8.43329C13.9497 9.89996 12.1163 10.8333 9.99967 10.8333C7.88301 10.8333 6.04968 9.89996 5.15801 8.43329C4.79134 7.83329 4.58301 7.13329 4.58301 6.37496C4.58301 5.07496 5.19134 3.89996 6.16634 3.04996C7.14967 2.19163 8.49967 1.66663 9.99967 1.66663C11.4997 1.66663 12.8497 2.19163 13.833 3.04163C14.808 3.89996 15.4163 5.07496 15.4163 6.37496Z" stroke="#9C9CAB" stroke-width="1.5" stroke-linecap="round" stroke-linejoin="round"/>
<path d="M15.4163 6.37496V10.5416C15.4163 13.1416 12.9913 15 9.99967 15C7.00801 15 4.58301 13.1416 4.58301 10.5416V6.37496C4.58301 3.77496 7.00801 1.66663 9.99967 1.66663C11.4997 1.66663 12.8497 2.19163 13.833 3.04163C14.808 3.89996 15.4163 5.07496 15.4163 6.37496Z" stroke="#9C9CAB" stroke-width="1.5" stroke-linecap="round" stroke-linejoin="round"/>
</svg>
