<svg width="20" height="20" viewBox="0 0 20 20" fill="none" xmlns="http://www.w3.org/2000/svg">
<path d="M18.3333 9.08329V3.41663C18.3333 2.16663 17.8 1.66663 16.475 1.66663H13.1083C11.7833 1.66663 11.25 2.16663 11.25 3.41663V9.08329C11.25 10.3333 11.7833 10.8333 13.1083 10.8333H16.475C17.8 10.8333 18.3333 10.3333 18.3333 9.08329Z" stroke="#9C9CAB" stroke-width="1.5" stroke-linecap="round" stroke-linejoin="round"/>
<path d="M18.3333 16.5833V15.0833C18.3333 13.8333 17.8 13.3333 16.475 13.3333H13.1083C11.7833 13.3333 11.25 13.8333 11.25 15.0833V16.5833C11.25 17.8333 11.7833 18.3333 13.1083 18.3333H16.475C17.8 18.3333 18.3333 17.8333 18.3333 16.5833Z" stroke="#9C9CAB" stroke-width="1.5" stroke-linecap="round" stroke-linejoin="round"/>
<path d="M8.75033 10.9166V16.5833C8.75033 17.8333 8.21699 18.3333 6.89199 18.3333H3.52533C2.20033 18.3333 1.66699 17.8333 1.66699 16.5833V10.9166C1.66699 9.66663 2.20033 9.16663 3.52533 9.16663H6.89199C8.21699 9.16663 8.75033 9.66663 8.75033 10.9166Z" stroke="#9C9CAB" stroke-width="1.5" stroke-linecap="round" stroke-linejoin="round"/>
<path d="M8.75033 3.41663V4.91663C8.75033 6.16663 8.21699 6.66663 6.89199 6.66663H3.52533C2.20033 6.66663 1.66699 6.16663 1.66699 4.91663V3.41663C1.66699 2.16663 2.20033 1.66663 3.52533 1.66663H6.89199C8.21699 1.66663 8.75033 2.16663 8.75033 3.41663Z" stroke="#9C9CAB" stroke-width="1.5" stroke-linecap="round" stroke-linejoin="round"/>
</svg>
