<svg width="103" height="93" viewBox="0 0 103 93" fill="none" xmlns="http://www.w3.org/2000/svg">
<circle cx="75.0002" cy="17.9992" r="60.1613" fill="url(#paint0_linear_13_13389)" stroke="url(#paint1_linear_13_13389)" stroke-width="20"/>
<g clip-path="url(#clip0_13_13389)">
<path d="M67.4488 -43.8322C70.6177 -49.9609 79.3822 -49.9609 82.551 -43.8322L102.73 -4.80541C103.538 -3.24151 104.812 -1.96726 106.377 -1.15861L145.403 19.0201C151.532 22.189 151.532 30.9535 145.403 34.1223L106.377 54.301C104.812 55.1095 103.538 56.3838 102.73 57.9483L82.551 96.9745C79.3822 103.104 70.6177 103.104 67.4488 96.9745L47.2701 57.9483C46.4615 56.3838 45.1872 55.1095 43.6233 54.301L4.59647 34.1223C-1.53216 30.9535 -1.53216 22.189 4.59647 19.0201L43.6233 -1.15861C45.1872 -1.96726 46.4615 -3.24151 47.2701 -4.80541L67.4488 -43.8322Z" fill="#0E0637"/>
<path d="M71.2244 -17.2018C72.8088 -20.2661 77.1911 -20.2661 78.7755 -17.2018L88.8649 2.31165C89.2691 3.0936 89.9062 3.73073 90.6885 4.13505L110.202 14.2244C113.266 15.8088 113.266 20.1911 110.202 21.7755L90.6885 31.8649C89.9062 32.2691 89.2691 32.9062 88.8649 33.6885L78.7755 53.2016C77.1911 56.2661 72.8088 56.2661 71.2244 53.2016L61.1351 33.6885C60.7307 32.9062 60.0936 32.2691 59.3116 31.8649L39.7982 21.7755C36.7339 20.1911 36.7339 15.8088 39.7982 14.2244L59.3116 4.13505C60.0936 3.73073 60.7307 3.0936 61.1351 2.31165L71.2244 -17.2018Z" fill="#0E0637"/>
</g>
<defs>
<linearGradient id="paint0_linear_13_13389" x1="75.0002" y1="-52.1621" x2="75.0002" y2="88.1605" gradientUnits="userSpaceOnUse">
<stop stop-color="#5B66FA"/>
<stop offset="1" stop-color="#EFD3EF"/>
</linearGradient>
<linearGradient id="paint1_linear_13_13389" x1="75.0002" y1="-52.1621" x2="75.0002" y2="88.1605" gradientUnits="userSpaceOnUse">
<stop stop-color="#5B66FA"/>
<stop offset="1" stop-color="#EFD3EF"/>
</linearGradient>
<clipPath id="clip0_13_13389">
<rect width="150" height="150" fill="white" transform="translate(0 -57)"/>
</clipPath>
</defs>
</svg>
