<svg width="128" height="25" viewBox="0 0 128 25" fill="none" xmlns="http://www.w3.org/2000/svg">
<rect x="0.536621" y="0.5" width="30.9632" height="23" rx="3.73461" stroke="url(#paint0_linear_13_13418)"/>
<path d="M1.1125e-06 8.3075L10.8691 8.3075C11.5572 6.08904 13.4922 1.51778 15.7267 0.980469C16.5566 1.28576 18.4956 2.38482 19.6129 4.33869M0 16.0009L10.8691 16.0009C10.8691 19.8109 14.1075 22.5952 15.7267 23.5111C18.447 22.583 20.5439 18.1176 21.2524 16.0009L32 16.0009M32 10.1393L21.2524 10.1393C20.7666 9.18267 20.0865 6.97642 21.2524 5.8041" stroke="url(#paint1_linear_13_13418)"/>
<path d="M43 10.1036C43.4532 10.8497 44.0878 12.6902 43 14.0829M45.9914 8.67358C46.6713 9.85492 47.6231 12.8767 45.9914 15.513M48.643 7.18135C49.5268 8.7772 50.7642 12.9389 48.643 16.8187M51.4984 6C52.6315 7.88601 54.2179 12.9264 51.4984 18" stroke="white" stroke-linecap="round" stroke-linejoin="round"/>
<g filter="url(#filter0_b_13_13418)">
<rect x="64" y="4" width="64" height="16" rx="2" fill="white" fill-opacity="0.3"/>
<path d="M70.512 9.4V15H71.4V10.88L73.08 15H73.856L75.536 10.88V15H76.424V9.4H75.256L73.496 13.808L71.704 9.4H70.512ZM81.2815 14.248H81.1135C80.9295 14.248 80.8415 14.152 80.8415 13.96V12.344C80.8415 11.864 80.6895 11.496 80.3935 11.24C80.0895 10.984 79.6655 10.856 79.1215 10.856C78.6015 10.856 78.1855 10.976 77.8655 11.2C77.5455 11.424 77.3615 11.744 77.3215 12.152H78.1695C78.2015 11.976 78.2975 11.832 78.4575 11.72C78.6175 11.608 78.8255 11.552 79.0815 11.552C79.3615 11.552 79.5855 11.624 79.7455 11.752C79.9055 11.88 79.9855 12.064 79.9855 12.288V12.536H78.9535C78.3775 12.536 77.9455 12.656 77.6495 12.88C77.3455 13.104 77.2015 13.432 77.2015 13.848C77.2015 14.224 77.3375 14.52 77.6175 14.728C77.8895 14.944 78.2575 15.048 78.7215 15.048C79.3135 15.048 79.7615 14.816 80.0735 14.344C80.0735 14.56 80.1295 14.72 80.2495 14.832C80.3615 14.944 80.5535 15 80.8255 15H81.2815V14.248ZM79.9855 13.176V13.32C79.9775 13.64 79.8735 13.896 79.6735 14.088C79.4735 14.28 79.1935 14.376 78.8415 14.376C78.6015 14.376 78.4175 14.328 78.2815 14.216C78.1455 14.112 78.0815 13.968 78.0815 13.792C78.0815 13.592 78.1535 13.44 78.2975 13.336C78.4415 13.232 78.6415 13.176 78.9135 13.176H79.9855ZM82.5601 9.416C82.4561 9.32 82.3281 9.264 82.1841 9.264C82.0321 9.264 81.9041 9.32 81.8081 9.416C81.7041 9.512 81.6561 9.64 81.6561 9.784C81.6561 9.936 81.7041 10.064 81.8081 10.16C81.9041 10.256 82.0321 10.304 82.1841 10.304C82.3281 10.304 82.4561 10.256 82.5601 10.16C82.6561 10.064 82.7121 9.936 82.7121 9.784C82.7121 9.64 82.6561 9.512 82.5601 9.416ZM81.7521 10.904V15H82.6161V10.904H81.7521ZM86.8071 11.304C86.5031 11.008 86.1031 10.856 85.6231 10.856C85.0551 10.856 84.6151 11.056 84.3111 11.44L84.2151 10.904H83.4631V15H84.3271V12.936C84.3271 12.52 84.4231 12.2 84.6151 11.96C84.8071 11.72 85.0791 11.6 85.4231 11.6C85.7431 11.6 85.9831 11.704 86.1511 11.904C86.3111 12.112 86.3991 12.408 86.3991 12.792V15H87.2711V12.744C87.2711 12.088 87.1111 11.608 86.8071 11.304ZM92.3997 9.4H90.1917V15H91.1117V12.968H92.3997C92.7837 12.968 93.1197 12.896 93.4157 12.752C93.7037 12.608 93.9357 12.4 94.0957 12.128C94.2557 11.856 94.3357 11.544 94.3357 11.184C94.3357 10.832 94.2557 10.52 94.0957 10.248C93.9357 9.976 93.7037 9.768 93.4157 9.624C93.1197 9.48 92.7837 9.4 92.3997 9.4ZM91.1117 12.168V10.2H92.3277C92.6557 10.2 92.9197 10.288 93.1117 10.464C93.3037 10.64 93.3997 10.88 93.3997 11.184C93.3997 11.488 93.2957 11.728 93.1037 11.904C92.9117 12.08 92.6477 12.168 92.3197 12.168H91.1117ZM98.6331 14.248H98.4651C98.2811 14.248 98.1931 14.152 98.1931 13.96V12.344C98.1931 11.864 98.0411 11.496 97.7451 11.24C97.4411 10.984 97.0171 10.856 96.4731 10.856C95.9531 10.856 95.5371 10.976 95.2171 11.2C94.8971 11.424 94.7131 11.744 94.6731 12.152H95.5211C95.5531 11.976 95.6491 11.832 95.8091 11.72C95.9691 11.608 96.1771 11.552 96.4331 11.552C96.7131 11.552 96.9371 11.624 97.0971 11.752C97.2571 11.88 97.3371 12.064 97.3371 12.288V12.536H96.3051C95.7291 12.536 95.2971 12.656 95.0011 12.88C94.6971 13.104 94.5531 13.432 94.5531 13.848C94.5531 14.224 94.6891 14.52 94.9691 14.728C95.2411 14.944 95.6091 15.048 96.0731 15.048C96.6651 15.048 97.1131 14.816 97.4251 14.344C97.4251 14.56 97.4811 14.72 97.6011 14.832C97.7131 14.944 97.9051 15 98.1771 15H98.6331V14.248ZM97.3371 13.176V13.32C97.3291 13.64 97.2251 13.896 97.0251 14.088C96.8251 14.28 96.5451 14.376 96.1931 14.376C95.9531 14.376 95.7691 14.328 95.6331 14.216C95.4971 14.112 95.4331 13.968 95.4331 13.792C95.4331 13.592 95.5051 13.44 95.6491 13.336C95.7931 13.232 95.9931 13.176 96.2651 13.176H97.3371ZM99.4907 10.904H98.5707L100.171 15.032L100.003 15.424C99.9307 15.6 99.8667 15.72 99.8027 15.768C99.7387 15.816 99.6187 15.84 99.4587 15.84H98.8507V16.6H99.7787C99.9707 16.6 100.131 16.568 100.251 16.504C100.363 16.44 100.467 16.336 100.547 16.208C100.627 16.08 100.715 15.888 100.811 15.64L102.667 10.904H101.747L100.635 14.064L99.4907 10.904ZM108.928 11.296C108.64 11.008 108.28 10.856 107.832 10.856C107.496 10.856 107.216 10.928 106.984 11.056C106.744 11.184 106.56 11.368 106.416 11.6C106.296 11.352 106.128 11.168 105.912 11.04C105.688 10.92 105.44 10.856 105.152 10.856C104.64 10.864 104.24 11.056 103.952 11.44L103.856 10.904H103.104V15H103.968V12.808C103.968 12.44 104.048 12.152 104.224 11.928C104.4 11.712 104.632 11.6 104.928 11.6C105.208 11.6 105.424 11.696 105.568 11.88C105.712 12.064 105.792 12.336 105.792 12.696V15H106.664V12.784C106.664 12.416 106.744 12.128 106.92 11.92C107.096 11.712 107.328 11.6 107.632 11.6C107.912 11.6 108.128 11.696 108.272 11.88C108.416 12.072 108.488 12.344 108.488 12.696V15H109.352V12.688C109.352 12.048 109.208 11.584 108.928 11.296ZM110.231 11.856C110.063 12.176 109.983 12.544 109.983 12.96C109.983 13.376 110.063 13.744 110.239 14.056C110.415 14.376 110.655 14.616 110.975 14.792C111.295 14.968 111.663 15.048 112.095 15.048C112.583 15.048 112.991 14.92 113.319 14.648C113.647 14.384 113.847 14.04 113.927 13.624H113.063C112.999 13.856 112.879 14.032 112.703 14.16C112.519 14.288 112.295 14.344 112.031 14.344C111.695 14.344 111.423 14.24 111.223 14.032C111.015 13.824 110.903 13.544 110.887 13.184V13.136H113.975C113.991 13.024 113.999 12.92 113.999 12.808C113.991 12.416 113.903 12.072 113.727 11.776C113.551 11.488 113.319 11.256 113.015 11.096C112.711 10.936 112.367 10.856 111.975 10.856C111.583 10.856 111.239 10.944 110.935 11.12C110.631 11.296 110.399 11.536 110.231 11.856ZM113.119 12.504H110.919C110.951 12.216 111.063 11.992 111.271 11.816C111.479 11.64 111.719 11.552 112.007 11.552C112.311 11.552 112.559 11.64 112.759 11.808C112.959 11.976 113.079 12.208 113.119 12.504ZM118.041 11.304C117.737 11.008 117.337 10.856 116.857 10.856C116.289 10.856 115.849 11.056 115.545 11.44L115.449 10.904H114.697V15H115.561V12.936C115.561 12.52 115.657 12.2 115.849 11.96C116.041 11.72 116.313 11.6 116.657 11.6C116.977 11.6 117.217 11.704 117.385 11.904C117.545 12.112 117.633 12.408 117.633 12.792V15H118.505V12.744C118.505 12.088 118.345 11.608 118.041 11.304ZM119.555 11.664V13.888C119.555 14.272 119.643 14.552 119.819 14.728C119.995 14.912 120.283 15 120.675 15H121.507V14.24H120.851C120.691 14.24 120.587 14.208 120.523 14.144C120.459 14.08 120.427 13.96 120.427 13.8V11.664H121.411V10.904H120.427V9.76H119.555V10.904H118.843V11.664H119.555Z" fill="white"/>
</g>
<defs>
<filter id="filter0_b_13_13418" x="60" y="0" width="72" height="24" filterUnits="userSpaceOnUse" color-interpolation-filters="sRGB">
<feFlood flood-opacity="0" result="BackgroundImageFix"/>
<feGaussianBlur in="BackgroundImageFix" stdDeviation="2"/>
<feComposite in2="SourceAlpha" operator="in" result="effect1_backgroundBlur_13_13418"/>
<feBlend mode="normal" in="SourceGraphic" in2="effect1_backgroundBlur_13_13418" result="shape"/>
</filter>
<linearGradient id="paint0_linear_13_13418" x1="1.23856" y1="0.391303" x2="31.95" y2="20.0597" gradientUnits="userSpaceOnUse">
<stop stop-color="#B0A3F5"/>
<stop offset="0.494792" stop-color="white"/>
<stop offset="1" stop-color="#7259ED"/>
</linearGradient>
<linearGradient id="paint1_linear_13_13418" x1="1.20332" y1="1.34781" x2="30.7694" y2="21.5408" gradientUnits="userSpaceOnUse">
<stop stop-color="#B0A3F5"/>
<stop offset="0.494792" stop-color="white"/>
<stop offset="1" stop-color="#7259ED"/>
</linearGradient>
</defs>
</svg>
