<svg width="20" height="20" viewBox="0 0 20 20" fill="none" xmlns="http://www.w3.org/2000/svg">
<path fill-rule="evenodd" clip-rule="evenodd" d="M9.99984 1.1665C10.276 1.1665 10.4998 1.39036 10.4998 1.6665V12.1261L12.9796 9.64628C13.1749 9.45102 13.4915 9.45102 13.6867 9.64628C13.882 9.84155 13.882 10.1581 13.6867 10.3534L10.3534 13.6867C10.1581 13.882 9.84155 13.882 9.64628 13.6867L6.31295 10.3534C6.11769 10.1581 6.11769 9.84155 6.31295 9.64628C6.50821 9.45102 6.8248 9.45102 7.02006 9.64628L9.49984 12.1261V1.6665C9.49984 1.39036 9.72369 1.1665 9.99984 1.1665ZM6.26597 2.53099C6.40425 2.77002 6.32256 3.07589 6.08353 3.21416C3.74084 4.56933 2.1665 7.10103 2.1665 9.99984C2.1665 14.3261 5.67361 17.8332 9.99984 17.8332C14.3261 17.8332 17.8332 14.3261 17.8332 9.99984C17.8332 7.10103 16.2588 4.56933 13.9161 3.21416C13.6771 3.07589 13.5954 2.77002 13.7337 2.53099C13.872 2.29196 14.1778 2.21028 14.4169 2.34855C17.0559 3.87512 18.8332 6.72963 18.8332 9.99984C18.8332 14.8784 14.8784 18.8332 9.99984 18.8332C5.12132 18.8332 1.1665 14.8784 1.1665 9.99984C1.1665 6.72963 2.94382 3.87512 5.58281 2.34855C5.82184 2.21028 6.1277 2.29196 6.26597 2.53099Z" fill="#9C9CAB"/>
</svg>
