<svg width="16" height="14" viewBox="0 0 16 14" fill="none" xmlns="http://www.w3.org/2000/svg">
<path d="M1.3335 3.66699L6.77678 7.47729C7.21756 7.78583 7.43795 7.94011 7.67767 7.99986C7.88943 8.05265 8.1109 8.05265 8.32265 7.99986C8.56238 7.94011 8.78277 7.78583 9.22355 7.47729L14.6668 3.66699M4.5335 12.3337H11.4668C12.5869 12.3337 13.147 12.3337 13.5748 12.1157C13.9511 11.9239 14.2571 11.618 14.4488 11.2416C14.6668 10.8138 14.6668 10.2538 14.6668 9.13366V4.86699C14.6668 3.74689 14.6668 3.18683 14.4488 2.75901C14.2571 2.38269 13.9511 2.07673 13.5748 1.88498C13.147 1.66699 12.5869 1.66699 11.4668 1.66699H4.5335C3.41339 1.66699 2.85334 1.66699 2.42552 1.88498C2.04919 2.07673 1.74323 2.38269 1.55148 2.75901C1.3335 3.18683 1.3335 3.74689 1.3335 4.86699V9.13366C1.3335 10.2538 1.3335 10.8138 1.55148 11.2416C1.74323 11.618 2.04919 11.9239 2.42552 12.1157C2.85334 12.3337 3.41339 12.3337 4.5335 12.3337Z" stroke="#5235E8" stroke-width="1.5" stroke-linecap="round" stroke-linejoin="round"/>
</svg>
