<svg width="22" height="22" viewBox="0 0 22 22" fill="none" xmlns="http://www.w3.org/2000/svg">
<path d="M11.6647 1.47013L11.6647 1.47036L13.2192 6.46368L13.2194 6.46432C13.3597 6.91356 13.6342 7.31072 14.0096 7.5954C14.3855 7.88048 14.8423 8.03698 15.3148 8.03735H15.3154H20.3448C20.6661 8.03735 20.9108 8.23896 21.0102 8.55849C21.1102 8.88023 21.0275 9.22111 20.7452 9.43566L16.6785 12.5201C16.3023 12.805 16.0273 13.2028 15.887 13.6528C15.7468 14.1026 15.7465 14.5863 15.8863 15.0362L15.8864 15.0367L17.4409 20.03L17.441 20.0304C17.5573 20.4033 17.4163 20.7234 17.1762 20.9054C16.9411 21.0838 16.6446 21.1111 16.373 20.9053C16.3729 20.9052 16.3729 20.9052 16.3728 20.9052L12.3053 17.8201L12.3051 17.82C11.9288 17.5347 11.4715 17.3783 10.9986 17.3783C10.5256 17.3783 10.0683 17.5347 9.69201 17.82L9.69184 17.8201L5.62415 20.9053L5.62391 20.9054C5.35322 21.1109 5.05776 21.0838 4.82293 20.9056C4.58306 20.7235 4.44171 20.403 4.55778 20.0297L6.11214 15.0367L6.11227 15.0362C6.25206 14.5863 6.25181 14.1026 6.11155 13.6528C5.97127 13.203 5.69642 12.8053 5.32043 12.5203C5.32034 12.5203 5.32025 12.5202 5.32016 12.5201C5.32013 12.5201 5.32011 12.5201 5.32008 12.5201L1.25484 9.43718C1.25478 9.43713 1.25471 9.43707 1.25464 9.43702C0.972787 9.22266 0.89016 8.88209 0.990328 8.56021C1.0899 8.24023 1.33486 8.03886 1.65522 8.03886H6.68297C6.68304 8.03886 6.68311 8.03886 6.68317 8.03886C7.15599 8.03895 7.61325 7.88267 7.98958 7.59759C8.36542 7.31287 8.64023 6.91544 8.78064 6.46584L8.78084 6.4652L10.3353 1.47188L10.3525 1.41665C10.5982 0.775463 11.455 0.795866 11.6647 1.47013Z" fill="#5235E8" stroke="#5235E8" stroke-width="1.5"/>
</svg>
