<svg width="18" height="18" viewBox="0 0 18 18" fill="none" xmlns="http://www.w3.org/2000/svg">
<path fill-rule="evenodd" clip-rule="evenodd" d="M8.99984 1.1665C4.67361 1.1665 1.1665 4.67361 1.1665 8.99984C1.1665 11.8986 2.74084 14.4303 5.08353 15.7855C5.32256 15.9238 5.40424 16.2297 5.26597 16.4687C5.1277 16.7077 4.82184 16.7894 4.58281 16.6511C1.94382 15.1246 0.166504 12.27 0.166504 8.99984C0.166504 4.12132 4.12132 0.166504 8.99984 0.166504C13.8784 0.166504 17.8332 4.12132 17.8332 8.99984C17.8332 12.27 16.0559 15.1246 13.4169 16.6511C13.1778 16.7894 12.872 16.7077 12.7337 16.4687C12.5954 16.2297 12.6771 15.9238 12.9161 15.7855C15.2588 14.4303 16.8332 11.8986 16.8332 8.99984C16.8332 4.67361 13.3261 1.1665 8.99984 1.1665ZM8.64628 5.31301C8.84155 5.11775 9.15813 5.11775 9.35339 5.31301L12.6867 8.64634C12.882 8.8416 12.882 9.15819 12.6867 9.35345C12.4915 9.54871 12.1749 9.54871 11.9796 9.35345L9.49984 6.87367V17.3332C9.49984 17.6094 9.27598 17.8332 8.99984 17.8332C8.72369 17.8332 8.49984 17.6094 8.49984 17.3332V6.87367L6.02006 9.35345C5.82479 9.54871 5.50821 9.54871 5.31295 9.35345C5.11769 9.15819 5.11769 8.8416 5.31295 8.64634L8.64628 5.31301Z" fill="#5235E8"/>
</svg>
