<svg width="20" height="20" viewBox="0 0 20 20" fill="none" xmlns="http://www.w3.org/2000/svg">
<path d="M14.023 10L20 15.9701H17.8851C17.5287 15.9701 17.1724 15.8209 16.9195 15.5683L11.3678 10L16.9425 4.42021C17.1954 4.16762 17.5402 4.01837 17.908 4.02985H20L14.023 10ZM3.06897 4.42021C2.81609 4.16762 2.47126 4.01837 2.10345 4.02985H0L5.97701 10L0 15.9701H2.11494C2.47126 15.9701 2.82759 15.8209 3.08046 15.5683L8.64368 9.98852L3.06897 4.42021ZM10 11.3662L4.41379 16.9346C4.16092 17.1871 4.02299 17.5316 4.02299 17.899V20L10 14.0299L15.977 20V17.8875C15.977 17.5316 15.8391 17.1757 15.5862 16.9231L10 11.3662ZM10 8.63375L15.5862 3.06544C15.8391 2.81286 15.977 2.46843 15.977 2.10103V0L10 5.97015L4.02299 0V2.10103C4.02299 2.45695 4.16092 2.81286 4.41379 3.06544L10 8.63375Z" fill="url(#paint0_linear_13_12730)"/>
<defs>
<linearGradient id="paint0_linear_13_12730" x1="-0.00666896" y1="9.99785" x2="12.6392" y2="9.99785" gradientUnits="userSpaceOnUse">
<stop stop-color="#00BFFF"/>
<stop offset="1" stop-color="#6619FF"/>
</linearGradient>
</defs>
</svg>
