<svg width="40" height="40" viewBox="0 0 40 40" fill="none" xmlns="http://www.w3.org/2000/svg">
<g clip-path="url(#clip0_12_8303)">
<circle cx="20" cy="20" r="20" fill="#DAF727"/>
<path fill-rule="evenodd" clip-rule="evenodd" d="M18.7045 12.8706L16.2494 15.3333H24.168C24.1772 15.3333 24.1863 15.3333 24.1955 15.3334C24.0855 14.9735 23.8851 14.6362 23.5922 14.3479L23.5874 14.3432L22.1308 12.8699C21.1843 11.932 19.6507 11.9322 18.7045 12.8706ZM17.9991 12.1618C19.3357 10.8349 21.5003 10.8349 22.8369 12.1618L22.8402 12.1651L24.2963 13.6378C24.9188 14.2518 25.2532 15.0366 25.2924 15.8509C25.2997 16.0019 25.2383 16.1481 25.1253 16.2486C25.0123 16.3491 24.8599 16.393 24.7108 16.3682C24.5509 16.3415 24.3744 16.3333 24.168 16.3333H15.8347C15.6252 16.3333 15.4257 16.3483 15.2357 16.3775C15.0509 16.4059 14.8657 16.3289 14.7556 16.1778C14.6455 16.0268 14.6289 15.8269 14.7125 15.6597C14.8585 15.3676 15.0609 15.1084 15.2891 14.8801C15.289 14.8802 15.2892 14.88 15.2891 14.8801L17.9991 12.1618Z" fill="#0E0637"/>
<path fill-rule="evenodd" clip-rule="evenodd" d="M14.1668 23C12.6013 23 11.3335 24.2678 11.3335 25.8333C11.3335 26.3646 11.4822 26.8655 11.7424 27.2876L11.7466 27.2944C12.2348 28.1151 13.1329 28.6667 14.1668 28.6667C15.2007 28.6667 16.0989 28.1151 16.5871 27.2944L16.5912 27.2876C16.8515 26.8655 17.0002 26.3646 17.0002 25.8333C17.0002 24.2678 15.7324 23 14.1668 23ZM10.3335 25.8333C10.3335 23.7155 12.049 22 14.1668 22C16.2846 22 18.0002 23.7155 18.0002 25.8333C18.0002 26.5507 17.7996 27.2318 17.4445 27.809C16.7823 28.9197 15.5648 29.6667 14.1668 29.6667C12.7689 29.6667 11.5514 28.9197 10.8891 27.809C10.534 27.2318 10.3335 26.5507 10.3335 25.8333Z" fill="#0E0637"/>
<path fill-rule="evenodd" clip-rule="evenodd" d="M12.4268 25.8163C12.4268 25.5401 12.6506 25.3163 12.9268 25.3163H15.4101C15.6862 25.3163 15.9101 25.5401 15.9101 25.8163C15.9101 26.0924 15.6862 26.3163 15.4101 26.3163H12.9268C12.6506 26.3163 12.4268 26.0924 12.4268 25.8163Z" fill="#0E0637"/>
<path fill-rule="evenodd" clip-rule="evenodd" d="M14.167 24.0996C14.4431 24.0996 14.667 24.3235 14.667 24.5996V27.0913C14.667 27.3674 14.4431 27.5913 14.167 27.5913C13.8908 27.5913 13.667 27.3674 13.667 27.0913V24.5996C13.667 24.3235 13.8908 24.0996 14.167 24.0996Z" fill="#0E0637"/>
<path fill-rule="evenodd" clip-rule="evenodd" d="M15.8337 16.3333C15.6242 16.3333 15.4246 16.3483 15.2347 16.3775C15.2301 16.3782 15.2255 16.3788 15.2209 16.3794C14.2702 16.4987 13.5153 16.9073 12.9965 17.516C12.4766 18.1259 12.167 18.9686 12.167 20V22.5648C12.7474 22.2077 13.4317 22 14.167 22C16.2848 22 18.0003 23.7155 18.0003 25.8333C18.0003 26.5499 17.8002 27.2303 17.4458 27.8072C17.4407 27.8159 17.4355 27.8246 17.4303 27.8333H24.167C25.3034 27.8333 26.2115 27.4567 26.8343 26.8339C27.457 26.2111 27.8337 25.303 27.8337 24.1666V20C27.8337 18.9614 27.5185 18.1135 26.9905 17.5016C26.4635 16.8909 25.6971 16.4836 24.7342 16.3716C24.7261 16.3707 24.7179 16.3695 24.7098 16.3682C24.5499 16.3415 24.3734 16.3333 24.167 16.3333H15.8337ZM15.0895 15.3881C15.3307 15.3513 15.5789 15.3333 15.8337 15.3333H24.167C24.39 15.3333 24.6258 15.3415 24.8617 15.3797C26.0437 15.5198 27.0437 16.0327 27.7476 16.8483C28.453 17.6656 28.8337 18.7552 28.8337 20V24.1666C28.8337 25.5303 28.3769 26.7055 27.5414 27.541C26.7058 28.3766 25.5306 28.8333 24.167 28.8333H16.3587C16.1484 28.8333 15.9607 28.7018 15.8888 28.5043C15.8169 28.3067 15.8763 28.0853 16.0374 27.9502C16.251 27.771 16.4388 27.5489 16.5851 27.298C16.5872 27.2945 16.5893 27.291 16.5914 27.2875C16.8516 26.8655 17.0003 26.3646 17.0003 25.8333C17.0003 24.2678 15.7325 23 14.167 23C13.318 23 12.5607 23.3742 12.0424 23.9635C11.905 24.1198 11.6852 24.1746 11.4905 24.1011C11.2958 24.0277 11.167 23.8414 11.167 23.6333V20C11.167 18.7647 11.5407 17.6824 12.2354 16.8673C12.9298 16.0526 13.9183 15.5366 15.0895 15.3881Z" fill="#0E0637"/>
<path fill-rule="evenodd" clip-rule="evenodd" d="M23.667 22.0833C23.667 20.8905 24.6408 19.9167 25.8337 19.9167H28.3337C28.6098 19.9167 28.8337 20.1405 28.8337 20.4167C28.8337 20.6928 28.6098 20.9167 28.3337 20.9167H25.8337C25.1931 20.9167 24.667 21.4428 24.667 22.0833C24.667 22.7238 25.1931 23.25 25.8337 23.25H28.3337C28.6098 23.25 28.8337 23.4738 28.8337 23.75C28.8337 24.0261 28.6098 24.25 28.3337 24.25H25.8337C24.6408 24.25 23.667 23.2761 23.667 22.0833Z" fill="#0E0637"/>
</g>
<defs>
<clipPath id="clip0_12_8303">
<rect width="40" height="40" fill="white"/>
</clipPath>
</defs>
</svg>
