<svg width="25" height="24" viewBox="0 0 25 24" fill="none" xmlns="http://www.w3.org/2000/svg">
<path d="M24.4888 12.2242C24.4888 11.2409 24.4071 10.5234 24.2304 9.7793H12.7393V14.2173H19.4843C19.3484 15.3202 18.614 16.9811 16.9821 18.0972L16.9592 18.2458L20.5925 20.996L20.8442 21.0205C23.156 18.9344 24.4888 15.8649 24.4888 12.2242Z" fill="#4285F4"/>
<path d="M12.7393 23.9178C16.0438 23.9178 18.8179 22.8548 20.8442 21.0211L16.9821 18.0978C15.9486 18.8021 14.5615 19.2937 12.7393 19.2937C9.50273 19.2937 6.75576 17.2076 5.77654 14.3242L5.63301 14.3361L1.85507 17.193L1.80566 17.3271C3.81829 21.2337 7.95238 23.9178 12.7393 23.9178Z" fill="#34A853"/>
<path d="M5.77634 14.3238C5.51797 13.5797 5.36844 12.7824 5.36844 11.9586C5.36844 11.1347 5.51797 10.3375 5.76275 9.59342L5.75591 9.43494L1.93062 6.53223L1.80547 6.59039C0.975969 8.21149 0.5 10.0319 0.5 11.9586C0.5 13.8853 0.975969 15.7056 1.80547 17.3267L5.77634 14.3238Z" fill="#FBBC05"/>
<path d="M12.7393 4.62403C15.0374 4.62403 16.5877 5.59402 17.4717 6.40461L20.9258 3.10928C18.8044 1.1826 16.0438 0 12.7393 0C7.95238 0 3.81829 2.68406 1.80566 6.59056L5.76295 9.59359C6.75576 6.7102 9.50273 4.62403 12.7393 4.62403Z" fill="#EB4335"/>
</svg>
