<svg width="32" height="32" viewBox="0 0 32 32" fill="none" xmlns="http://www.w3.org/2000/svg">
<path d="M16 4C20.3469 4 24.2565 5.00879 27.0609 6.61273C29.8832 8.22689 31.4785 10.3706 31.4785 12.6131C31.4785 14.8555 29.8832 16.9993 27.0609 18.6135C24.2565 20.2174 20.3469 21.2262 16 21.2262C11.6532 21.2262 7.74353 20.2174 4.93914 18.6135C2.11681 16.9993 0.521484 14.8555 0.521484 12.6131C0.521484 10.3706 2.11681 8.22689 4.93914 6.61273C7.74353 5.00879 11.6532 4 16 4Z" fill="url(#paint0_linear_16_8365)" stroke="url(#paint1_linear_16_8365)"/>
<path fill-rule="evenodd" clip-rule="evenodd" d="M0.00313573 15.6641H0V18.6546C1.73916e-06 19.8821 0.41385 21.0973 1.21793 22.2312C2.022 23.365 3.20054 24.3952 4.68629 25.2632C6.17201 26.131 7.93583 26.8194 9.87705 27.2891C11.8182 27.7589 13.8988 28.0005 16 28.0005C18.1012 28.0005 20.1817 27.7589 22.123 27.2891C24.064 26.8194 25.8279 26.131 27.3137 25.2632C28.7994 24.3952 29.9779 23.365 30.7821 22.2312C31.5861 21.0973 32 19.8821 32 18.6546V15.6641H31.9969C31.8264 20.7392 24.7296 24.4205 16 24.4205C7.27034 24.4205 0.173594 20.7392 0.00313573 15.6641Z" fill="#DAF727"/>
<g opacity="0.8" filter="url(#filter0_f_16_8365)">
<path d="M14.8862 17.1449L15.3086 18.0552C15.3552 18.1558 15.4793 18.2208 15.5854 18.2005L16.355 18.0534C16.406 18.0437 16.446 18.0152 16.4663 17.9741C16.4865 17.933 16.4853 17.8827 16.4628 17.8345L16.0404 16.9242L16.4253 16.8506L16.8475 17.7609C16.8943 17.8614 17.0183 17.9265 17.1244 17.9062L17.894 17.7591C17.9449 17.7494 17.9851 17.7209 18.0053 17.6798C18.0255 17.6387 18.0243 17.5884 18.0018 17.5402L17.5796 16.6299L17.6441 16.6175C19.177 16.3243 19.9238 15.3624 19.3199 14.0609C18.8123 12.9669 17.7601 12.5172 16.8133 12.6054L16.7835 12.5413C17.4481 12.2224 17.7495 11.5843 17.3385 10.6986C16.8209 9.58284 15.6217 9.07472 14.2712 9.33297L14.2004 9.3465L13.778 8.43609C13.7556 8.38779 13.7138 8.34535 13.6619 8.31811C13.61 8.29086 13.5521 8.28104 13.5011 8.29078L12.7316 8.43794C12.6806 8.4477 12.6405 8.47623 12.6203 8.51729C12.6001 8.55833 12.6013 8.60852 12.6237 8.6568L13.0461 9.56722L12.6052 9.65154L12.1828 8.74112C12.1604 8.69283 12.1186 8.6504 12.0667 8.62316C12.0148 8.5959 11.9569 8.58609 11.9059 8.59583L11.1926 8.73224C11.1415 8.742 11.1015 8.77055 11.0813 8.81159C11.061 8.85263 11.0623 8.90281 11.0847 8.95112L11.5071 9.86152L9.97329 10.1636C9.92226 10.1733 9.88223 10.2018 9.862 10.2429C9.84176 10.2839 9.84299 10.3341 9.86539 10.3824L10.1996 11.1027C10.2459 11.2025 10.3687 11.2686 10.4749 11.2483L11.0542 11.1336C11.207 11.1054 11.3797 11.1355 11.5346 11.2173C11.6895 11.2991 11.814 11.426 11.8809 11.5702L13.7411 15.5797C13.8083 15.7246 13.812 15.8752 13.7513 15.9983C13.6906 16.1214 13.5705 16.2069 13.4174 16.2362L12.8455 16.3544C12.7945 16.3641 12.7545 16.3927 12.7343 16.4338C12.714 16.4747 12.7152 16.5249 12.7376 16.5732L13.0756 17.3015C13.1222 17.402 13.2462 17.4671 13.3524 17.4469L14.8862 17.1449ZM13.1076 10.7346L14.4304 10.4816C15.1276 10.3483 15.7053 10.6327 15.9803 11.2256C16.2747 11.86 15.9981 12.3022 14.9962 12.4938L14.0112 12.6821L13.1076 10.7346ZM14.4765 13.685L15.8924 13.4143C16.7674 13.247 17.4397 13.5783 17.7587 14.2659C18.0808 14.9599 17.7669 15.4141 16.5881 15.6395L15.4815 15.8511L14.4769 13.6858L14.4765 13.685Z" fill="#5235E8" fill-opacity="0.64"/>
</g>
<path d="M11.3817 10.2526L11.3823 10.2525L11.961 10.1379C12.091 10.1141 12.2379 10.1397 12.3697 10.2093C12.5016 10.279 12.6077 10.3871 12.6647 10.5099L14.5249 14.5194C14.5822 14.6428 14.5853 14.7711 14.5336 14.876C14.4818 14.9809 14.3795 15.0538 14.2491 15.0787L14.2479 15.079L13.6773 15.1968C13.677 15.1969 13.6768 15.1969 13.6766 15.197C13.6032 15.2112 13.5457 15.2523 13.5165 15.3114C13.4873 15.3707 13.489 15.4432 13.5214 15.513L13.8593 16.2412C13.9267 16.3866 14.1058 16.4804 14.2592 16.4512L14.2597 16.451L15.7077 16.1659L16.0924 16.9951C16.1597 17.1402 16.3389 17.2343 16.4923 17.2048L17.2618 17.0577C17.3354 17.0437 17.3933 17.0024 17.4225 16.943C17.4518 16.8838 17.45 16.8113 17.4177 16.7415L17.0328 15.9121L17.2465 15.8712L17.6314 16.7006C17.6987 16.8459 17.8778 16.94 18.0312 16.9105L18.8008 16.7634C18.8746 16.7492 18.9323 16.7081 18.9615 16.6487C18.9907 16.5895 18.989 16.517 18.9566 16.4472L18.5718 15.6177C19.3417 15.4668 19.9229 15.1475 20.2351 14.6938C20.5518 14.2341 20.5876 13.6424 20.2746 12.9679C20.012 12.4017 19.6048 11.9963 19.1354 11.7449C18.7438 11.5353 18.3142 11.4357 17.897 11.4355C18.1472 11.2752 18.3318 11.0603 18.4236 10.7945C18.537 10.4657 18.5064 10.065 18.2933 9.60566C18.0243 9.02584 17.5745 8.5982 17.0124 8.35135C16.4568 8.10729 15.8018 8.04445 15.1176 8.17264L14.7328 7.34311C14.7004 7.27337 14.6401 7.21207 14.5651 7.17272C14.4901 7.13335 14.4065 7.11915 14.3328 7.13324L13.5633 7.2804C13.4896 7.29449 13.4318 7.33572 13.4026 7.39501C13.3733 7.45429 13.3751 7.52679 13.4075 7.59655L13.7923 8.42603L13.5224 8.47765L13.1375 7.64816C13.1052 7.57841 13.0449 7.51712 12.9699 7.47775C12.8949 7.4384 12.8113 7.4242 12.7376 7.43829L12.0243 7.5747C11.9506 7.5888 11.8928 7.63002 11.8635 7.68931C11.8343 7.74859 11.8361 7.8211 11.8684 7.89085L12.2535 8.72078L10.805 9.00601L10.8426 9.08694L10.8045 9.0061L10.8047 9.00605C10.7312 9.02019 10.6735 9.06139 10.6443 9.12062C10.615 9.17991 10.6168 9.2524 10.6492 9.32215L10.9833 10.0425C11.0499 10.1859 11.2272 10.2822 11.3817 10.2526ZM14.9284 11.5082L14.1 9.72253L15.3372 9.48592C15.6707 9.42217 15.9647 9.46025 16.2027 9.57532C16.4396 9.68979 16.635 9.88717 16.7641 10.1653C16.9022 10.463 16.9024 10.7041 16.7622 10.8944C16.6189 11.0888 16.3206 11.242 15.8279 11.3362L14.9284 11.5082ZM15.4688 12.673L16.7992 12.4186C17.2231 12.3376 17.5857 12.3796 17.8747 12.5143C18.1619 12.6481 18.3916 12.8803 18.5424 13.2056C18.6942 13.5328 18.6918 13.7903 18.5257 13.9949C18.3551 14.205 18.0031 14.3704 17.4198 14.4819L16.3987 14.6772L15.4688 12.673Z" fill="white" stroke="#8D79F1" stroke-width="0.25"/>
<defs>
<filter id="filter0_f_16_8365" x="5.84766" y="4.28711" width="17.6816" height="17.917" filterUnits="userSpaceOnUse" color-interpolation-filters="sRGB">
<feFlood flood-opacity="0" result="BackgroundImageFix"/>
<feBlend mode="normal" in="SourceGraphic" in2="BackgroundImageFix" result="shape"/>
<feGaussianBlur stdDeviation="2" result="effect1_foregroundBlur_16_8365"/>
</filter>
<linearGradient id="paint0_linear_16_8365" x1="32.4657" y1="4.65136" x2="-0.359682" y2="16.2643" gradientUnits="userSpaceOnUse">
<stop stop-color="#5235E8"/>
<stop offset="1" stop-color="#816CEF"/>
</linearGradient>
<linearGradient id="paint1_linear_16_8365" x1="7.15622" y1="3.46168" x2="27.5472" y2="18.0893" gradientUnits="userSpaceOnUse">
<stop stop-color="#B0A3F5"/>
<stop offset="1" stop-color="#917FF1"/>
</linearGradient>
</defs>
</svg>
