<svg width="160" height="32" viewBox="0 0 160 32" fill="none" xmlns="http://www.w3.org/2000/svg">
<path d="M16 4C20.3469 4 24.2565 5.00879 27.0609 6.61273C29.8832 8.22689 31.4785 10.3706 31.4785 12.6131C31.4785 14.8555 29.8832 16.9993 27.0609 18.6135C24.2565 20.2174 20.3469 21.2262 16 21.2262C11.6532 21.2262 7.74353 20.2174 4.93914 18.6135C2.11681 16.9993 0.521484 14.8555 0.521484 12.6131C0.521484 10.3706 2.11681 8.22689 4.93914 6.61273C7.74353 5.00879 11.6532 4 16 4Z" fill="url(#paint0_linear_5_8542)" stroke="url(#paint1_linear_5_8542)"/>
<path fill-rule="evenodd" clip-rule="evenodd" d="M0.00313573 15.6636H0V18.6541C1.73916e-06 19.8816 0.41385 21.0968 1.21793 22.2308C2.022 23.3646 3.20054 24.3948 4.68629 25.2627C6.17201 26.1305 7.93583 26.8189 9.87705 27.2887C11.8182 27.7584 13.8988 28 16 28C18.1012 28 20.1817 27.7584 22.123 27.2887C24.064 26.8189 25.8279 26.1305 27.3137 25.2627C28.7994 24.3948 29.9779 23.3646 30.7821 22.2308C31.5861 21.0968 32 19.8816 32 18.6541V15.6636H31.9969C31.8264 20.7387 24.7296 24.42 16 24.42C7.27034 24.42 0.173594 20.7387 0.00313573 15.6636Z" fill="#DAF727"/>
<g opacity="0.8" filter="url(#filter0_f_5_8542)">
<path d="M14.8862 17.145L15.3086 18.0553C15.3552 18.156 15.4793 18.2209 15.5854 18.2007L16.355 18.0535C16.406 18.0438 16.446 18.0153 16.4663 17.9742C16.4865 17.9331 16.4853 17.8829 16.4628 17.8346L16.0404 16.9243L16.4253 16.8507L16.8475 17.761C16.8943 17.8615 17.0183 17.9266 17.1244 17.9064L17.894 17.7592C17.9449 17.7495 17.9851 17.721 18.0053 17.6799C18.0255 17.6388 18.0243 17.5886 18.0018 17.5403L17.5796 16.63L17.6441 16.6176C19.177 16.3244 19.9238 15.3626 19.3199 14.061C18.8123 12.9671 17.7601 12.5173 16.8133 12.6056L16.7835 12.5415C17.4481 12.2225 17.7495 11.5844 17.3385 10.6988C16.8209 9.58297 15.6217 9.07486 14.2712 9.3331L14.2004 9.34663L13.778 8.43623C13.7556 8.38793 13.7138 8.34549 13.6619 8.31825C13.61 8.29099 13.5521 8.28118 13.5011 8.29092L12.7316 8.43808C12.6806 8.44784 12.6405 8.47637 12.6203 8.51743C12.6001 8.55846 12.6013 8.60865 12.6237 8.65694L13.0461 9.56736L12.6052 9.65168L12.1828 8.74126C12.1604 8.69297 12.1186 8.65054 12.0667 8.6233C12.0148 8.59604 11.9569 8.58622 11.9059 8.59597L11.1926 8.73238C11.1415 8.74214 11.1015 8.77069 11.0813 8.81173C11.061 8.85276 11.0623 8.90295 11.0847 8.95126L11.5071 9.86166L9.97329 10.1637C9.92226 10.1734 9.88223 10.202 9.862 10.243C9.84176 10.2841 9.84299 10.3343 9.86539 10.3826L10.1996 11.1029C10.2459 11.2026 10.3687 11.2688 10.4749 11.2485L11.0542 11.1337C11.207 11.1055 11.3797 11.1356 11.5346 11.2174C11.6895 11.2992 11.814 11.4261 11.8809 11.5703L13.7411 15.5798C13.8083 15.7248 13.812 15.8753 13.7513 15.9984C13.6906 16.1215 13.5705 16.2071 13.4174 16.2363L12.8455 16.3546C12.7945 16.3643 12.7545 16.3928 12.7343 16.4339C12.714 16.4748 12.7152 16.525 12.7376 16.5733L13.0756 17.3017C13.1222 17.4021 13.2462 17.4673 13.3524 17.447L14.8862 17.145ZM13.1076 10.7347L14.4304 10.4817C15.1276 10.3484 15.7053 10.6329 15.9803 11.2257C16.2747 11.8601 15.9981 12.3023 14.9962 12.4939L14.0112 12.6823L13.1076 10.7347ZM14.4765 13.6852L15.8924 13.4144C16.7674 13.2471 17.4397 13.5785 17.7587 14.266C18.0808 14.9601 17.7669 15.4142 16.5881 15.6396L15.4815 15.8513L14.4769 13.6859L14.4765 13.6852Z" fill="#5235E8" fill-opacity="0.64"/>
</g>
<path d="M11.3822 10.2527L11.3828 10.2526L11.9615 10.138C12.0915 10.1142 12.2384 10.1398 12.3702 10.2094C12.5021 10.2791 12.6082 10.3872 12.6652 10.51L14.5254 14.5195C14.5826 14.6429 14.5858 14.7712 14.534 14.8761C14.4823 14.9809 14.38 15.0539 14.2496 15.0788L14.2484 15.0791L13.6778 15.1969C13.6775 15.197 13.6773 15.197 13.6771 15.197C13.6037 15.2113 13.5461 15.2524 13.517 15.3115C13.4878 15.3708 13.4895 15.4433 13.5219 15.5131L13.8598 16.2413C13.9272 16.3867 14.1063 16.4805 14.2597 16.4513L14.2602 16.4511L15.7082 16.166L16.0929 16.9952C16.1602 17.1403 16.3394 17.2343 16.4927 17.2049L17.2623 17.0578C17.3359 17.0438 17.3938 17.0025 17.423 16.9431C17.4522 16.8839 17.4505 16.8114 17.4182 16.7416L17.0333 15.9122L17.247 15.8713L17.6319 16.7007C17.6992 16.846 17.8783 16.9401 18.0317 16.9106L18.8013 16.7635C18.875 16.7493 18.9328 16.7082 18.962 16.6488C18.9912 16.5896 18.9895 16.5171 18.9571 16.4473L18.5723 15.6178C19.3422 15.4669 19.9234 15.1476 20.2356 14.6939C20.5523 14.2342 20.5881 13.6425 20.2751 12.968C20.0125 12.4018 19.6053 11.9964 19.1359 11.745C18.7443 11.5354 18.3147 11.4358 17.8975 11.4356C18.1477 11.2753 18.3323 11.0604 18.4241 10.7946C18.5375 10.4658 18.5069 10.0651 18.2938 9.60576C18.0248 9.02593 17.575 8.59829 17.0129 8.35144C16.4573 8.10738 15.8023 8.04454 15.1181 8.17273L14.7332 7.3432C14.7009 7.27346 14.6406 7.21216 14.5656 7.17281C14.4906 7.13344 14.407 7.11925 14.3333 7.13333L13.5638 7.28049C13.4901 7.29458 13.4323 7.33581 13.4031 7.3951C13.3738 7.45439 13.3756 7.52688 13.4079 7.59664L13.7928 8.42612L13.5229 8.47775L13.138 7.64825C13.1057 7.5785 13.0454 7.51721 12.9704 7.47784C12.8953 7.43849 12.8118 7.42429 12.7381 7.43838L12.0248 7.57479C11.9511 7.58889 11.8933 7.63011 11.864 7.6894C11.8348 7.74868 11.8366 7.82119 11.8689 7.89094L12.254 8.72087L10.8055 9.0061L10.843 9.08703L10.805 9.00619L10.8052 9.00614C10.7317 9.02028 10.6739 9.06148 10.6447 9.12071C10.6155 9.18 10.6173 9.25249 10.6496 9.32224L10.9838 10.0426C11.0504 10.186 11.2277 10.2823 11.3822 10.2527ZM14.9289 11.5083L14.1004 9.72262L15.3377 9.48601C15.6712 9.42226 15.9652 9.46034 16.2032 9.57541C16.4401 9.68988 16.6355 9.88726 16.7646 10.1654C16.9027 10.4631 16.9028 10.7042 16.7627 10.8945C16.6194 11.0889 16.3211 11.2421 15.8284 11.3363L14.9289 11.5083ZM15.4693 12.6731L16.7997 12.4187C17.2235 12.3376 17.5862 12.3797 17.8752 12.5144C18.1623 12.6482 18.3921 12.8804 18.5429 13.2057C18.6947 13.5329 18.6923 13.7904 18.5262 13.9949C18.3556 14.2051 18.0036 14.3705 17.4202 14.482L16.3992 14.6773L15.4693 12.6731Z" fill="white" stroke="#8D79F1" stroke-width="0.25"/>
<path d="M49.6782 26C51.0658 26 52.3059 25.7659 53.3986 25.2978C54.5087 24.8296 55.4453 24.2141 56.2084 23.4512C56.9716 22.671 57.5179 21.8214 57.8475 20.9025L54.6735 19.42C54.2918 20.3909 53.6674 21.1972 52.8002 21.8388C51.9503 22.4629 50.9096 22.775 49.6782 22.775C48.4641 22.775 47.3974 22.4889 46.4782 21.9168C45.559 21.3446 44.8391 20.5558 44.3188 19.5501C43.7984 18.5271 43.5383 17.3394 43.5383 15.987C43.5383 14.6346 43.7984 13.4556 44.3188 12.4499C44.8391 11.427 45.559 10.6381 46.4782 10.0832C47.3974 9.51105 48.4641 9.22497 49.6782 9.22497C50.9096 9.22497 51.9503 9.54573 52.8002 10.1873C53.6674 10.8114 54.2918 11.609 54.6735 12.58L57.8475 11.0975C57.5179 10.1786 56.9716 9.33766 56.2084 8.57477C55.4453 7.79454 54.5087 7.17035 53.3986 6.70221C52.3059 6.23407 51.0658 6 49.6782 6C48.2907 6 47.0071 6.25141 45.8278 6.75423C44.6484 7.23971 43.625 7.93324 42.7578 8.83485C41.8906 9.71912 41.2142 10.7768 40.7285 12.0078C40.2428 13.2215 40 14.5479 40 15.987C40 17.426 40.2428 18.7612 40.7285 19.9922C41.2142 21.2059 41.8906 22.2635 42.7578 23.1651C43.625 24.0668 44.6484 24.769 45.8278 25.2718C47.0071 25.7573 48.2907 26 49.6782 26ZM66.4954 26C67.8655 26 69.1143 25.6879 70.2418 25.0637C71.3691 24.4221 72.2711 23.5466 72.9475 22.4369C73.624 21.31 73.9622 20.0356 73.9622 18.6138C73.9622 17.192 73.624 15.9264 72.9475 14.8166C72.2883 13.707 71.3951 12.8314 70.2678 12.1899C69.1403 11.5483 67.8829 11.2276 66.4954 11.2276C65.0905 11.2276 63.8243 11.5483 62.6969 12.1899C61.5694 12.8314 60.6676 13.707 59.9912 14.8166C59.332 15.9264 59.0025 17.192 59.0025 18.6138C59.0025 20.0356 59.332 21.3012 59.9912 22.4109C60.6676 23.5206 61.5694 24.3961 62.6969 25.0377C63.8416 25.6793 65.1077 26 66.4954 26ZM66.4954 22.8791C65.7321 22.8791 65.047 22.697 64.44 22.3329C63.8503 21.9688 63.382 21.466 63.0351 20.8244C62.7055 20.1656 62.5408 19.4286 62.5408 18.6138C62.5408 17.7989 62.7055 17.0707 63.0351 16.4291C63.382 15.7876 63.8503 15.2848 64.44 14.9207C65.047 14.5392 65.7321 14.3485 66.4954 14.3485C67.2585 14.3485 67.9263 14.5392 68.4986 14.9207C69.0883 15.2848 69.5479 15.7876 69.8775 16.4291C70.2244 17.0707 70.3979 17.7989 70.3979 18.6138C70.3979 19.4286 70.2244 20.1656 69.8775 20.8244C69.5479 21.466 69.0883 21.9688 68.4986 22.3329C67.9263 22.697 67.2585 22.8791 66.4954 22.8791ZM75.9417 9.95319H79.3499V6.31209H75.9417V9.95319ZM75.9417 25.6879H79.3499V11.5397H75.9417V25.6879ZM81.8917 25.6879H85.2999V17.3914C85.2999 16.4725 85.56 15.7355 86.0804 15.1808C86.618 14.6259 87.3118 14.3485 88.1617 14.3485C89.0115 14.3485 89.6967 14.6259 90.2171 15.1808C90.7546 15.7183 91.0236 16.4551 91.0236 17.3914V25.6879H94.4318V16.5852C94.4318 15.5275 94.2062 14.5999 93.7553 13.8023C93.3043 12.9874 92.6713 12.3546 91.8561 11.9038C91.0582 11.453 90.139 11.2276 89.0983 11.2276C88.2138 11.2276 87.4159 11.401 86.7048 11.7477C86.011 12.0945 85.4732 12.606 85.0917 13.2822V11.5397H81.8917V25.6879ZM104.436 26C105.806 26 107.029 25.6793 108.104 25.0377C109.179 24.3789 110.029 23.4946 110.654 22.3849C111.278 21.258 111.59 20.0008 111.59 18.6138C111.59 17.2268 111.278 15.9784 110.654 14.8687C110.029 13.7417 109.179 12.8574 108.104 12.2159C107.029 11.557 105.815 11.2276 104.462 11.2276C102.623 11.2276 101.175 11.8084 100.117 12.9701V6H96.7087V25.6879H99.9088V24.1014C100.429 24.7082 101.08 25.1764 101.86 25.5059C102.658 25.8353 103.516 26 104.436 26ZM104.045 22.8791C103.3 22.8791 102.623 22.697 102.016 22.3329C101.426 21.9688 100.958 21.466 100.611 20.8244C100.282 20.1829 100.117 19.446 100.117 18.6138C100.117 17.7815 100.282 17.0447 100.611 16.4031C100.958 15.7615 101.426 15.2588 102.016 14.8947C102.623 14.5306 103.3 14.3485 104.045 14.3485C104.826 14.3485 105.511 14.5392 106.101 14.9207C106.708 15.2848 107.185 15.7876 107.532 16.4291C107.879 17.0707 108.052 17.7989 108.052 18.6138C108.052 19.4286 107.879 20.1656 107.532 20.8244C107.185 21.466 106.708 21.9688 106.101 22.3329C105.511 22.697 104.826 22.8791 104.045 22.8791ZM117.876 26C119.715 26 121.189 25.3932 122.299 24.1795V25.6879H125.525V16.2731C125.525 15.2848 125.274 14.4092 124.771 13.6463C124.268 12.8834 123.574 12.2939 122.689 11.8778C121.822 11.4443 120.808 11.2276 119.646 11.2276C118.223 11.2276 116.957 11.5657 115.847 12.2419C114.737 12.9181 113.974 13.811 113.558 14.9207L116.341 16.2731C116.602 15.6315 117.009 15.1201 117.564 14.7386C118.119 14.3398 118.77 14.1404 119.515 14.1404C120.296 14.1404 120.92 14.3485 121.389 14.7646C121.874 15.1634 122.117 15.6663 122.117 16.2731V16.7412L117.902 17.4174C116.237 17.6949 115.006 18.2237 114.208 19.0039C113.41 19.7841 113.011 20.7638 113.011 21.9428C113.011 23.1912 113.454 24.1795 114.338 24.9077C115.223 25.6359 116.402 26 117.876 26ZM116.549 21.8127C116.549 20.8244 117.217 20.2003 118.553 19.9402L122.117 19.342V19.9142C122.117 20.8851 121.779 21.7087 121.102 22.3849C120.443 23.0611 119.576 23.3992 118.501 23.3992C117.928 23.3992 117.46 23.2606 117.096 22.9831C116.732 22.6884 116.549 22.2983 116.549 21.8127ZM128.07 25.6879H131.479V17.3914C131.479 16.4725 131.739 15.7355 132.259 15.1808C132.797 14.6259 133.491 14.3485 134.34 14.3485C135.19 14.3485 135.875 14.6259 136.396 15.1808C136.933 15.7183 137.202 16.4551 137.202 17.3914V25.6879H140.61V16.5852C140.61 15.5275 140.385 14.5999 139.934 13.8023C139.483 12.9874 138.85 12.3546 138.035 11.9038C137.237 11.453 136.318 11.2276 135.277 11.2276C134.392 11.2276 133.595 11.401 132.883 11.7477C132.19 12.0945 131.652 12.606 131.27 13.2822V11.5397H128.07V25.6879ZM142.887 25.6879H146.296V21.3706L148.117 19.394L152.097 25.6879H156L150.666 17.2354L155.896 11.5397H151.655L146.296 17.1573V6H142.887V25.6879Z" fill="#0E0637"/>
<defs>
<filter id="filter0_f_5_8542" x="5.84766" y="4.28725" width="17.6816" height="17.9171" filterUnits="userSpaceOnUse" color-interpolation-filters="sRGB">
<feFlood flood-opacity="0" result="BackgroundImageFix"/>
<feBlend mode="normal" in="SourceGraphic" in2="BackgroundImageFix" result="shape"/>
<feGaussianBlur stdDeviation="2" result="effect1_foregroundBlur_5_8542"/>
</filter>
<linearGradient id="paint0_linear_5_8542" x1="32.4657" y1="4.65136" x2="-0.359682" y2="16.2643" gradientUnits="userSpaceOnUse">
<stop stop-color="#5235E8"/>
<stop offset="1" stop-color="#816CEF"/>
</linearGradient>
<linearGradient id="paint1_linear_5_8542" x1="7.15622" y1="3.46168" x2="27.5472" y2="18.0893" gradientUnits="userSpaceOnUse">
<stop stop-color="#B0A3F5"/>
<stop offset="1" stop-color="#917FF1"/>
</linearGradient>
</defs>
</svg>
